<svg xmlns="http://www.w3.org/2000/svg" width="84.899" height="86.194" viewBox="0 0 84.899 86.194">
  <g id="iconfinder_7830741_human_resources_search_employees_icon" transform="translate(-0.25 -0.017)">
    <path id="Path_4225" data-name="Path 4225" d="M26.88,18.625a17.045,17.045,0,0,0-12.009,4.968.9.9,0,0,0-.2.994,28.746,28.746,0,0,1,2.272,11.2,8.369,8.369,0,0,1-.029.853.9.9,0,0,0,.9.954H42.234a1.806,1.806,0,0,0,1.806-1.806A17.182,17.182,0,0,0,26.88,18.625Z" transform="translate(37.496 48.619)" fill="#fff"/>
    <path id="Path_4226" data-name="Path 4226" d="M28.657,39.484a17.587,17.587,0,1,0-8.754,2.33,18.23,18.23,0,0,0,8.754-2.33ZM10.083,18.53a24.01,24.01,0,0,0,20.8,4.184c.022.271.083.527.083.8a11.065,11.065,0,1,1-22.13,0,10.892,10.892,0,0,1,1.245-4.975Z" transform="translate(5.409 17.3)" fill="#fff"/>
    <path id="Path_4227" data-name="Path 4227" d="M49.022,41.011a24.386,24.386,0,0,0-48.772,0,1.806,1.806,0,0,0,1.806,1.806H47.216A1.806,1.806,0,0,0,49.022,41.011ZM21.926,26.52a2.71,2.71,0,0,1,5.419,0v5.253a2.71,2.71,0,1,1-5.419,0Z" transform="translate(0 43.393)" fill="#fff"/>
    <circle id="Ellipse_169" data-name="Ellipse 169" cx="11.788" cy="11.788" r="11.788" transform="translate(52.588 42.189)" fill="#fff"/>
    <path id="Path_4228" data-name="Path 4228" d="M54.327,33.981l-7.9-7.9a17.887,17.887,0,0,0,1.738-7.6,18.259,18.259,0,1,0-6.116,13.443l7.175,7.175a3.612,3.612,0,1,0,5.109-5.109ZM30.1,29.31A10.838,10.838,0,1,1,40.934,18.472,10.838,10.838,0,0,1,30.1,29.31Z" transform="translate(29.764 0)" fill="#fff"/>
  </g>
</svg>
