<svg xmlns="http://www.w3.org/2000/svg" width="113.226" height="62.422" viewBox="0 0 113.226 62.422">
  <g id="iconfinder_4047300_haul_haulage_trailer_transport_transportation_icon" transform="translate(-152.234 -308.276)">
    <path id="Path_4222" data-name="Path 4222" d="M154.655,359.927h6.735a10.771,10.771,0,0,0,21.542,0H236.17a10.771,10.771,0,0,0,21.542,0h5.006a2.741,2.741,0,0,0,2.741-2.741v-43.4s0,0,0-.006v-2.448s0,0,0-.006v-.305a2.741,2.741,0,0,0-2.741-2.741H184.3a3.052,3.052,0,0,0-3.052,3.052v2.448a3.052,3.052,0,0,0,3.052,3.052h24.441v30.085h-3.783V323.448a3.143,3.143,0,0,0-3.142-3.143H185.025a3.144,3.144,0,0,0-2.846,1.809l-4.794,10.215a5.379,5.379,0,0,1-3.552,2.929l-12.567,3.166a5.378,5.378,0,0,0-3.83,3.65l-2.626,8.644-1.66,1.319a2.424,2.424,0,0,0-.915,1.9v3.575A2.42,2.42,0,0,0,154.655,359.927Zm92.287,7.116a7.116,7.116,0,1,1,7.116-7.116A7.124,7.124,0,0,1,246.942,367.043Zm-34.624-49.421a1.233,1.233,0,0,1,.285-.793H261.6a1.234,1.234,0,0,1,.286.793v29.292H259.4v-28.05H214.8v28.05h-2.486Zm-12.256,24.907h-1.9a1.243,1.243,0,0,1,0-2.486h1.9a1.243,1.243,0,0,1,0,2.486Zm-20.78-6.5a9.118,9.118,0,0,0,1.413-2.15l4.576-9.753a.293.293,0,0,1,.265-.168h15.476a.291.291,0,0,1,.291.291v11.185a.292.292,0,0,1-.291.293h-11.9a6.793,6.793,0,0,0-4.3,1.535,6.794,6.794,0,0,1-4.3,1.535h0A1.657,1.657,0,0,1,179.282,336.031Zm-7.122,16.78a7.116,7.116,0,1,1-7.116,7.116A7.124,7.124,0,0,1,172.159,352.812Zm-13.8-4.8,1.048-3.578a1.427,1.427,0,0,1,1.369-1.026h.48a1.428,1.428,0,0,1,1.387,1.763l-.908,3.749a1.427,1.427,0,0,1-1.768,1.04l-.619-.171A1.43,1.43,0,0,1,158.36,348.01Z" fill="#fff"/>
    <path id="Path_4223" data-name="Path 4223" d="M716.34,604.455a3.436,3.436,0,1,0,3.435,3.436A3.436,3.436,0,0,0,716.34,604.455Z" transform="translate(-469.399 -247.964)" fill="#fff"/>
    <path id="Path_4224" data-name="Path 4224" d="M256.969,611.328a3.436,3.436,0,1,0-3.435-3.437A3.436,3.436,0,0,0,256.969,611.328Z" transform="translate(-84.809 -247.964)" fill="#fff"/>
  </g>
</svg>
