<svg xmlns="http://www.w3.org/2000/svg" width="100.001" height="70" viewBox="0 0 100.001 70">
  <path id="Icon_awesome-truck-pickup" data-name="Icon awesome-truck-pickup" d="M97.5,42.25H95v-10a5,5,0,0,0-5-5H82.5L65.5,6A10,10,0,0,0,57.694,2.25H40a5,5,0,0,0-5,5v20H10a5,5,0,0,0-5,5v10H2.5A2.5,2.5,0,0,0,0,44.75v5a2.5,2.5,0,0,0,2.5,2.5h7.752A17.467,17.467,0,1,0,45,54.75a17.351,17.351,0,0,0-.252-2.5h10.5a17.507,17.507,0,1,0,34.5,0H97.5a2.5,2.5,0,0,0,2.5-2.5v-5A2.5,2.5,0,0,0,97.5,42.25ZM45,12.25H57.694l12,15H45Zm-17.5,50a7.5,7.5,0,1,1,7.5-7.5A7.508,7.508,0,0,1,27.5,62.25Zm45,0a7.5,7.5,0,1,1,7.5-7.5A7.508,7.508,0,0,1,72.5,62.25Z" transform="translate(0 -2.25)" fill="#fff"/>
</svg>
