<?xml version="1.0" encoding="UTF-8"?>
<svg xmlns="http://www.w3.org/2000/svg" xmlns:xlink="http://www.w3.org/1999/xlink" width="810pt" height="809.999993pt" viewBox="0 0 810 809.999993" version="1.2">
<g id="surface1">
<path style=" stroke:none;fill-rule:nonzero;fill:rgb(65.879822%,7.058716%,9.408569%);fill-opacity:1;" d="M 205.5 232.898438 L 287.699219 232.898438 L 287.699219 41.101562 L 205.5 41.101562 L 205.5 137 L 178.101562 123.300781 L 150.699219 137 L 150.699219 41.101562 L 68.5 41.101562 L 68.5 232.898438 Z M 205.5 232.898438 "/>
<path style=" stroke:none;fill-rule:nonzero;fill:rgb(65.879822%,7.058716%,9.408569%);fill-opacity:1;" d="M 287.699219 232.898438 L 205.5 232.898438 L 205.5 328.800781 L 178.101562 315.101562 L 150.699219 328.800781 L 150.699219 232.898438 L 68.5 232.898438 L 68.5 424.699219 L 287.699219 424.699219 Z M 287.699219 232.898438 "/>
<path style=" stroke:none;fill-rule:nonzero;fill:rgb(96.078491%,26.669312%,24.708557%);fill-opacity:1;" d="M 68.5 424.699219 L 13.699219 424.699219 L 13.699219 479.5 L 287.699219 479.5 L 287.699219 424.699219 Z M 68.5 424.699219 "/>
<path style=" stroke:none;fill-rule:nonzero;fill:rgb(100%,95.289612%,90.979004%);fill-opacity:1;" d="M 178.101562 123.300781 L 205.5 137 L 205.5 41.101562 L 150.699219 41.101562 L 150.699219 137 Z M 178.101562 123.300781 "/>
<path style=" stroke:none;fill-rule:nonzero;fill:rgb(100%,95.289612%,90.979004%);fill-opacity:1;" d="M 150.699219 328.800781 L 178.101562 315.101562 L 205.5 328.800781 L 205.5 232.898438 L 150.699219 232.898438 Z M 150.699219 328.800781 "/>
<path style=" stroke:none;fill-rule:nonzero;fill:rgb(96.078491%,26.669312%,24.708557%);fill-opacity:1;" d="M 479.5 753.5 C 479.5 755.292969 479.410156 757.085938 479.234375 758.871094 C 479.058594 760.65625 478.796875 762.429688 478.445312 764.191406 C 478.097656 765.953125 477.660156 767.691406 477.140625 769.40625 C 476.621094 771.125 476.015625 772.8125 475.328125 774.472656 C 474.640625 776.128906 473.875 777.75 473.027344 779.332031 C 472.183594 780.914062 471.261719 782.453125 470.265625 783.945312 C 469.265625 785.4375 468.199219 786.878906 467.0625 788.265625 C 465.921875 789.652344 464.71875 790.980469 463.449219 792.25 C 462.179688 793.519531 460.851562 794.722656 459.464844 795.859375 C 458.078125 797 456.636719 798.066406 455.144531 799.0625 C 453.652344 800.0625 452.117188 800.984375 450.53125 801.828125 C 448.949219 802.675781 447.328125 803.441406 445.671875 804.128906 C 444.011719 804.816406 442.324219 805.417969 440.609375 805.941406 C 438.890625 806.460938 437.152344 806.898438 435.390625 807.246094 C 433.628906 807.597656 431.859375 807.859375 430.070312 808.035156 C 428.285156 808.210938 426.496094 808.300781 424.699219 808.300781 C 422.90625 808.300781 421.113281 808.210938 419.328125 808.035156 C 417.542969 807.859375 415.769531 807.597656 414.007812 807.246094 C 412.25 806.898438 410.511719 806.460938 408.792969 805.941406 C 407.074219 805.417969 405.386719 804.816406 403.730469 804.128906 C 402.070312 803.441406 400.449219 802.675781 398.867188 801.828125 C 397.285156 800.984375 395.746094 800.0625 394.253906 799.0625 C 392.761719 798.066406 391.324219 797 389.933594 795.859375 C 388.546875 794.722656 387.21875 793.519531 385.949219 792.25 C 384.679688 790.980469 383.476562 789.652344 382.339844 788.265625 C 381.199219 786.878906 380.132812 785.4375 379.136719 783.945312 C 378.136719 782.453125 377.214844 780.914062 376.371094 779.332031 C 375.523438 777.75 374.757812 776.128906 374.070312 774.472656 C 373.382812 772.8125 372.78125 771.125 372.257812 769.40625 C 371.738281 767.691406 371.304688 765.949219 370.953125 764.191406 C 370.601562 762.429688 370.339844 760.65625 370.164062 758.871094 C 369.988281 757.085938 369.898438 755.292969 369.898438 753.5 C 369.898438 751.707031 369.988281 749.914062 370.164062 748.128906 C 370.339844 746.34375 370.601562 744.570312 370.953125 742.808594 C 371.304688 741.046875 371.738281 739.308594 372.257812 737.59375 C 372.78125 735.875 373.382812 734.1875 374.070312 732.527344 C 374.757812 730.871094 375.523438 729.25 376.371094 727.667969 C 377.214844 726.085938 378.136719 724.546875 379.136719 723.054688 C 380.132812 721.5625 381.199219 720.121094 382.339844 718.734375 C 383.476562 717.347656 384.679688 716.019531 385.949219 714.75 C 387.21875 713.480469 388.546875 712.277344 389.933594 711.140625 C 391.324219 710 392.761719 708.933594 394.253906 707.933594 C 395.746094 706.9375 397.285156 706.015625 398.867188 705.171875 C 400.449219 704.324219 402.070312 703.558594 403.730469 702.871094 C 405.386719 702.183594 407.074219 701.582031 408.792969 701.058594 C 410.511719 700.539062 412.25 700.101562 414.007812 699.753906 C 415.769531 699.402344 417.542969 699.140625 419.328125 698.964844 C 421.113281 698.789062 422.90625 698.699219 424.699219 698.699219 C 426.496094 698.699219 428.285156 698.789062 430.070312 698.964844 C 431.859375 699.140625 433.628906 699.402344 435.390625 699.753906 C 437.152344 700.101562 438.890625 700.539062 440.609375 701.058594 C 442.324219 701.582031 444.011719 702.183594 445.671875 702.871094 C 447.328125 703.558594 448.949219 704.324219 450.53125 705.171875 C 452.117188 706.015625 453.652344 706.9375 455.144531 707.933594 C 456.636719 708.933594 458.078125 710 459.464844 711.140625 C 460.851562 712.277344 462.179688 713.480469 463.449219 714.75 C 464.71875 716.019531 465.921875 717.347656 467.0625 718.734375 C 468.199219 720.121094 469.265625 721.5625 470.265625 723.054688 C 471.261719 724.546875 472.183594 726.085938 473.027344 727.667969 C 473.875 729.25 474.640625 730.871094 475.328125 732.527344 C 476.015625 734.1875 476.621094 735.875 477.140625 737.59375 C 477.660156 739.308594 478.097656 741.046875 478.445312 742.808594 C 478.796875 744.570312 479.058594 746.34375 479.234375 748.128906 C 479.410156 749.914062 479.5 751.707031 479.5 753.5 Z M 479.5 753.5 "/>
<path style=" stroke:none;fill-rule:nonzero;fill:rgb(96.078491%,26.669312%,24.708557%);fill-opacity:1;" d="M 753.5 753.5 C 753.5 755.292969 753.410156 757.085938 753.234375 758.871094 C 753.058594 760.65625 752.796875 762.429688 752.445312 764.191406 C 752.097656 765.953125 751.660156 767.691406 751.140625 769.40625 C 750.621094 771.125 750.015625 772.8125 749.328125 774.472656 C 748.640625 776.128906 747.875 777.75 747.027344 779.332031 C 746.183594 780.914062 745.261719 782.453125 744.265625 783.945312 C 743.265625 785.4375 742.199219 786.878906 741.0625 788.265625 C 739.921875 789.652344 738.71875 790.980469 737.449219 792.25 C 736.179688 793.519531 734.851562 794.722656 733.464844 795.859375 C 732.078125 797 730.636719 798.066406 729.144531 799.0625 C 727.652344 800.0625 726.117188 800.984375 724.53125 801.828125 C 722.949219 802.675781 721.328125 803.441406 719.671875 804.128906 C 718.011719 804.816406 716.324219 805.417969 714.609375 805.941406 C 712.890625 806.460938 711.152344 806.898438 709.390625 807.246094 C 707.628906 807.597656 705.859375 807.859375 704.070312 808.035156 C 702.285156 808.210938 700.496094 808.300781 698.699219 808.300781 C 696.90625 808.300781 695.113281 808.210938 693.328125 808.035156 C 691.542969 807.859375 689.769531 807.597656 688.007812 807.246094 C 686.25 806.898438 684.507812 806.460938 682.792969 805.941406 C 681.074219 805.417969 679.386719 804.816406 677.730469 804.128906 C 676.070312 803.441406 674.449219 802.675781 672.867188 801.828125 C 671.285156 800.984375 669.746094 800.0625 668.253906 799.0625 C 666.761719 798.066406 665.324219 797 663.933594 795.859375 C 662.546875 794.722656 661.21875 793.519531 659.949219 792.25 C 658.679688 790.980469 657.476562 789.652344 656.339844 788.265625 C 655.199219 786.878906 654.132812 785.4375 653.136719 783.945312 C 652.136719 782.453125 651.214844 780.914062 650.371094 779.332031 C 649.523438 777.75 648.757812 776.128906 648.070312 774.472656 C 647.382812 772.8125 646.78125 771.125 646.257812 769.40625 C 645.738281 767.691406 645.304688 765.949219 644.953125 764.191406 C 644.601562 762.429688 644.339844 760.65625 644.164062 758.871094 C 643.988281 757.085938 643.898438 755.292969 643.898438 753.5 C 643.898438 751.707031 643.988281 749.914062 644.164062 748.128906 C 644.339844 746.34375 644.601562 744.570312 644.953125 742.808594 C 645.304688 741.046875 645.738281 739.308594 646.257812 737.59375 C 646.78125 735.875 647.382812 734.1875 648.070312 732.527344 C 648.757812 730.871094 649.523438 729.25 650.371094 727.667969 C 651.214844 726.085938 652.136719 724.546875 653.136719 723.054688 C 654.132812 721.5625 655.199219 720.121094 656.339844 718.734375 C 657.476562 717.347656 658.679688 716.019531 659.949219 714.75 C 661.21875 713.480469 662.546875 712.277344 663.933594 711.140625 C 665.324219 710 666.761719 708.933594 668.253906 707.933594 C 669.746094 706.9375 671.285156 706.015625 672.867188 705.171875 C 674.449219 704.324219 676.070312 703.558594 677.730469 702.871094 C 679.386719 702.183594 681.074219 701.582031 682.792969 701.058594 C 684.507812 700.539062 686.25 700.101562 688.007812 699.753906 C 689.769531 699.402344 691.542969 699.140625 693.328125 698.964844 C 695.113281 698.789062 696.90625 698.699219 698.699219 698.699219 C 700.496094 698.699219 702.285156 698.789062 704.070312 698.964844 C 705.859375 699.140625 707.628906 699.402344 709.390625 699.753906 C 711.152344 700.101562 712.890625 700.539062 714.609375 701.058594 C 716.324219 701.582031 718.011719 702.183594 719.671875 702.871094 C 721.328125 703.558594 722.949219 704.324219 724.53125 705.171875 C 726.117188 706.015625 727.652344 706.9375 729.144531 707.933594 C 730.636719 708.933594 732.078125 710 733.464844 711.140625 C 734.851562 712.277344 736.179688 713.480469 737.449219 714.75 C 738.71875 716.019531 739.921875 717.347656 741.0625 718.734375 C 742.199219 720.121094 743.265625 721.5625 744.265625 723.054688 C 745.261719 724.546875 746.183594 726.085938 747.027344 727.667969 C 747.875 729.25 748.640625 730.871094 749.328125 732.527344 C 750.015625 734.1875 750.621094 735.875 751.140625 737.59375 C 751.660156 739.308594 752.097656 741.046875 752.445312 742.808594 C 752.796875 744.570312 753.058594 746.34375 753.234375 748.128906 C 753.410156 749.914062 753.5 751.707031 753.5 753.5 Z M 753.5 753.5 "/>
<path style=" stroke:none;fill-rule:nonzero;fill:rgb(96.078491%,26.669312%,24.708557%);fill-opacity:1;" d="M 424.699219 561.699219 L 342.5 561.699219 L 342.5 13.699219 L 287.699219 13.699219 L 287.699219 698.699219 L 342.5 698.699219 L 342.5 681.480469 C 362.570312 658.558594 391.832031 643.898438 424.699219 643.898438 C 465.238281 643.898438 500.558594 665.96875 519.519531 698.699219 L 603.882812 698.699219 C 622.84375 665.96875 658.160156 643.898438 698.699219 643.898438 C 739.238281 643.898438 774.558594 665.96875 793.519531 698.699219 L 808.300781 698.699219 L 808.300781 561.699219 Z M 424.699219 561.699219 "/>
<path style=" stroke:none;fill-rule:nonzero;fill:rgb(96.078491%,26.669312%,24.708557%);fill-opacity:1;" d="M 806.722656 488.132812 C 806.945312 489.582031 807.21875 491.007812 807.382812 492.472656 C 807.21875 490.996094 806.945312 489.570312 806.722656 488.132812 Z M 806.722656 488.132812 "/>
<path style=" stroke:none;fill-rule:nonzero;fill:rgb(96.078491%,26.669312%,24.708557%);fill-opacity:1;" d="M 803.65625 473.730469 C 804.082031 475.253906 804.476562 476.789062 804.832031 478.335938 C 804.476562 476.789062 804.082031 475.253906 803.65625 473.730469 Z M 803.65625 473.730469 "/>
<path style=" stroke:none;fill-rule:nonzero;fill:rgb(96.078491%,26.669312%,24.708557%);fill-opacity:1;" d="M 562.273438 495.460938 C 561.917969 499.226562 561.699219 503.035156 561.699219 506.898438 C 561.699219 503.035156 561.933594 499.226562 562.273438 495.460938 Z M 562.273438 495.460938 "/>
<path style=" stroke:none;fill-rule:nonzero;fill:rgb(96.078491%,26.669312%,24.708557%);fill-opacity:1;" d="M 566.015625 474.980469 C 565.878906 475.511719 565.742188 476.046875 565.605469 476.582031 C 565.742188 476.046875 565.878906 475.511719 566.015625 474.980469 Z M 566.015625 474.980469 "/>
<path style=" stroke:none;fill-rule:nonzero;fill:rgb(96.078491%,26.669312%,24.708557%);fill-opacity:1;" d="M 799.1875 460.484375 C 799.683594 461.691406 800.078125 462.949219 800.546875 464.167969 C 800.078125 462.949219 799.683594 461.691406 799.1875 460.484375 Z M 799.1875 460.484375 "/>
<path style=" stroke:none;fill-rule:nonzero;fill:rgb(96.078491%,26.669312%,24.708557%);fill-opacity:1;" d="M 774.625 422.398438 C 775.558594 423.386719 776.449219 424.386719 777.351562 425.398438 C 776.449219 424.371094 775.558594 423.386719 774.625 422.398438 Z M 774.625 422.398438 "/>
<path style=" stroke:none;fill-rule:nonzero;fill:rgb(96.078491%,26.669312%,24.708557%);fill-opacity:1;" d="M 764.691406 412.890625 C 765.460938 413.546875 766.1875 414.261719 766.941406 414.933594 C 766.1875 414.273438 765.460938 413.546875 764.691406 412.890625 Z M 764.691406 412.890625 "/>
<path style=" stroke:none;fill-rule:nonzero;fill:rgb(96.078491%,26.669312%,24.708557%);fill-opacity:1;" d="M 793.230469 447.8125 C 793.257812 447.851562 793.269531 447.878906 793.296875 447.921875 C 793.269531 447.894531 793.242188 447.851562 793.230469 447.8125 Z M 793.230469 447.8125 "/>
<path style=" stroke:none;fill-rule:nonzero;fill:rgb(96.078491%,26.669312%,24.708557%);fill-opacity:1;" d="M 783.761719 433.316406 C 784.503906 434.316406 785.285156 435.289062 785.996094 436.304688 C 785.285156 435.277344 784.515625 434.316406 783.761719 433.316406 Z M 783.761719 433.316406 "/>
<path style=" stroke:none;fill-rule:nonzero;fill:rgb(96.078491%,26.669312%,24.708557%);fill-opacity:1;" d="M 563.78125 484.828125 C 563.523438 486.253906 563.34375 487.707031 563.125 489.160156 C 563.332031 487.707031 563.523438 486.269531 563.78125 484.828125 Z M 563.78125 484.828125 "/>
<path style=" stroke:none;fill-rule:nonzero;fill:rgb(45.098877%,76.469421%,90.589905%);fill-opacity:1;" d="M 424.699219 328.800781 L 383.601562 315.101562 L 424.699219 328.800781 L 465.800781 342.5 C 465.800781 327.363281 478.0625 315.101562 493.199219 315.101562 L 517.3125 315.101562 C 528.367188 298.589844 547.179688 287.699219 568.550781 287.699219 C 602.59375 287.699219 630.199219 315.304688 630.199219 349.351562 L 630.199219 396.574219 C 646.722656 388.355469 665.285156 383.601562 685 383.601562 C 710.359375 383.601562 733.910156 391.273438 753.5 404.398438 L 753.5 41.101562 L 641.050781 41.101562 C 476.15625 41.101562 342.5 174.757812 342.5 339.652344 L 342.5 561.699219 Z M 561.699219 150.699219 C 599.527344 150.699219 630.199219 181.375 630.199219 219.199219 C 630.199219 257.027344 599.527344 287.699219 561.699219 287.699219 C 523.875 287.699219 493.199219 257.027344 493.199219 219.199219 C 493.199219 181.375 523.875 150.699219 561.699219 150.699219 Z M 561.699219 150.699219 "/>
<path style=" stroke:none;fill-rule:nonzero;fill:rgb(45.098877%,76.469421%,90.589905%);fill-opacity:1;" d="M 493.199219 465.800781 L 506.898438 465.800781 L 506.898438 369.898438 L 493.199219 369.898438 C 478.0625 369.898438 465.800781 357.636719 465.800781 342.5 L 424.699219 328.800781 L 342.5 561.699219 L 424.699219 561.699219 L 424.699219 534.300781 C 424.699219 496.472656 455.375 465.800781 493.199219 465.800781 Z M 493.199219 465.800781 "/>
<path style=" stroke:none;fill-rule:nonzero;fill:rgb(96.078491%,26.669312%,24.708557%);fill-opacity:1;" d="M 806.722656 488.132812 C 806.21875 484.828125 805.601562 481.554688 804.847656 478.335938 C 804.476562 476.789062 804.09375 475.253906 803.667969 473.730469 C 802.765625 470.484375 801.710938 467.308594 800.558594 464.183594 C 800.105469 462.949219 799.695312 461.703125 799.203125 460.5 C 797.449219 456.195312 795.519531 451.976562 793.3125 447.933594 C 793.285156 447.894531 793.269531 447.867188 793.242188 447.824219 C 791.066406 443.839844 788.613281 440.015625 786.011719 436.304688 C 785.296875 435.289062 784.515625 434.316406 783.777344 433.316406 C 781.734375 430.589844 779.613281 427.945312 777.351562 425.398438 C 776.460938 424.386719 775.558594 423.386719 774.625 422.398438 C 772.171875 419.808594 769.609375 417.328125 766.941406 414.945312 C 766.1875 414.273438 765.460938 413.546875 764.691406 412.90625 C 761.117188 409.875 757.40625 407.011719 753.5 404.398438 C 733.910156 391.273438 710.359375 383.601562 685 383.601562 C 665.285156 383.601562 646.722656 388.339844 630.199219 396.574219 C 619.527344 401.890625 609.746094 408.683594 601.113281 416.710938 L 601.101562 416.726562 C 598.222656 419.398438 595.484375 422.207031 592.882812 425.136719 C 592.882812 425.136719 592.882812 425.136719 592.867188 425.152344 C 582.429688 436.90625 574.222656 450.660156 568.851562 465.800781 C 567.78125 468.8125 566.851562 471.867188 566 474.980469 C 565.863281 475.511719 565.726562 476.046875 565.589844 476.582031 C 564.890625 479.292969 564.277344 482.046875 563.753906 484.828125 C 563.496094 486.253906 563.304688 487.707031 563.097656 489.160156 C 562.78125 491.253906 562.453125 493.335938 562.246094 495.460938 C 561.933594 499.226562 561.699219 503.035156 561.699219 506.898438 L 561.699219 561.699219 L 808.300781 561.699219 L 808.300781 506.898438 C 808.300781 502.007812 807.945312 497.199219 807.382812 492.460938 C 807.21875 491.007812 806.945312 489.570312 806.722656 488.132812 Z M 806.722656 488.132812 "/>
<path style=" stroke:none;fill-rule:nonzero;fill:rgb(100%,95.289612%,90.979004%);fill-opacity:1;" d="M 506.898438 465.800781 L 493.199219 465.800781 C 455.375 465.800781 424.699219 496.472656 424.699219 534.300781 L 424.699219 561.699219 L 561.699219 561.699219 L 561.699219 506.898438 C 561.699219 503.035156 561.917969 499.226562 562.273438 495.460938 C 562.46875 493.335938 562.808594 491.253906 563.125 489.160156 C 563.34375 487.71875 563.523438 486.269531 563.78125 484.828125 C 564.289062 482.035156 564.917969 479.292969 565.617188 476.582031 C 565.753906 476.046875 565.878906 475.511719 566.027344 474.980469 C 566.863281 471.867188 567.808594 468.8125 568.878906 465.800781 Z M 506.898438 465.800781 "/>
<path style=" stroke:none;fill-rule:nonzero;fill:rgb(96.078491%,26.669312%,24.708557%);fill-opacity:1;" d="M 563.125 489.160156 C 562.824219 491.253906 562.480469 493.335938 562.273438 495.460938 C 562.480469 493.335938 562.808594 491.253906 563.125 489.160156 Z M 563.125 489.160156 "/>
<path style=" stroke:none;fill-rule:nonzero;fill:rgb(96.078491%,26.669312%,24.708557%);fill-opacity:1;" d="M 568.863281 465.800781 C 567.796875 468.8125 566.851562 471.867188 566.015625 474.980469 C 566.863281 471.882812 567.796875 468.8125 568.863281 465.800781 Z M 568.863281 465.800781 "/>
<path style=" stroke:none;fill-rule:nonzero;fill:rgb(96.078491%,26.669312%,24.708557%);fill-opacity:1;" d="M 565.617188 476.582031 C 564.933594 479.308594 564.289062 482.046875 563.78125 484.828125 C 564.304688 482.046875 564.90625 479.292969 565.617188 476.582031 Z M 565.617188 476.582031 "/>
<path style=" stroke:none;fill-rule:nonzero;fill:rgb(100%,95.289612%,90.979004%);fill-opacity:1;" d="M 568.550781 287.699219 C 547.179688 287.699219 528.367188 298.589844 517.3125 315.101562 L 548 315.101562 C 563.136719 315.101562 575.398438 327.363281 575.398438 342.5 C 575.398438 357.636719 563.136719 369.898438 548 369.898438 L 506.898438 369.898438 L 506.898438 465.800781 L 568.863281 465.800781 C 574.222656 450.660156 582.429688 436.90625 592.882812 425.152344 C 595.496094 422.207031 598.238281 419.410156 601.113281 416.726562 L 601.128906 416.710938 C 609.773438 408.671875 619.542969 401.890625 630.214844 396.574219 L 630.214844 349.351562 C 630.199219 315.304688 602.59375 287.699219 568.550781 287.699219 Z M 568.550781 287.699219 "/>
<path style=" stroke:none;fill-rule:nonzero;fill:rgb(96.078491%,26.669312%,24.708557%);fill-opacity:1;" d="M 592.882812 425.136719 C 595.484375 422.207031 598.238281 419.398438 601.101562 416.726562 C 598.238281 419.398438 595.496094 422.191406 592.882812 425.136719 Z M 592.882812 425.136719 "/>
<path style=" stroke:none;fill-rule:nonzero;fill:rgb(96.078491%,26.669312%,24.708557%);fill-opacity:1;" d="M 630.199219 396.574219 C 619.527344 401.890625 609.757812 408.671875 601.113281 416.710938 C 609.746094 408.683594 619.527344 401.875 630.199219 396.574219 Z M 630.199219 396.574219 "/>
<path style=" stroke:none;fill-rule:nonzero;fill:rgb(96.078491%,26.669312%,24.708557%);fill-opacity:1;" d="M 592.882812 425.152344 C 582.429688 436.921875 574.234375 450.660156 568.863281 465.800781 C 574.222656 450.660156 582.441406 436.894531 592.882812 425.152344 Z M 592.882812 425.152344 "/>
<path style=" stroke:none;fill-rule:nonzero;fill:rgb(100%,95.289612%,90.979004%);fill-opacity:1;" d="M 630.199219 219.199219 C 630.199219 220.320312 630.171875 221.441406 630.117188 222.5625 C 630.0625 223.679688 629.980469 224.796875 629.871094 225.914062 C 629.761719 227.03125 629.621094 228.140625 629.457031 229.25 C 629.292969 230.359375 629.101562 231.464844 628.882812 232.5625 C 628.664062 233.664062 628.417969 234.757812 628.148438 235.84375 C 627.875 236.929688 627.574219 238.011719 627.25 239.085938 C 626.925781 240.15625 626.574219 241.222656 626.195312 242.277344 C 625.816406 243.332031 625.414062 244.378906 624.984375 245.414062 C 624.554688 246.449219 624.101562 247.472656 623.625 248.488281 C 623.144531 249.5 622.640625 250.503906 622.113281 251.492188 C 621.582031 252.480469 621.03125 253.453125 620.453125 254.414062 C 619.878906 255.378906 619.277344 256.324219 618.65625 257.257812 C 618.03125 258.1875 617.386719 259.105469 616.71875 260.003906 C 616.050781 260.90625 615.363281 261.789062 614.652344 262.65625 C 613.941406 263.523438 613.207031 264.371094 612.453125 265.203125 C 611.703125 266.03125 610.929688 266.84375 610.136719 267.636719 C 609.34375 268.429688 608.53125 269.203125 607.703125 269.957031 C 606.871094 270.707031 606.023438 271.441406 605.15625 272.152344 C 604.289062 272.863281 603.40625 273.550781 602.503906 274.21875 C 601.605469 274.886719 600.6875 275.53125 599.757812 276.15625 C 598.824219 276.777344 597.878906 277.378906 596.914062 277.953125 C 595.953125 278.53125 594.980469 279.082031 593.992188 279.613281 C 593 280.140625 592 280.644531 590.988281 281.125 C 589.972656 281.601562 588.949219 282.058594 587.914062 282.484375 C 586.878906 282.914062 585.832031 283.316406 584.777344 283.695312 C 583.722656 284.074219 582.65625 284.425781 581.585938 284.75 C 580.511719 285.074219 579.429688 285.375 578.34375 285.648438 C 577.257812 285.917969 576.164062 286.164062 575.0625 286.382812 C 573.964844 286.601562 572.859375 286.792969 571.75 286.957031 C 570.640625 287.125 569.53125 287.261719 568.414062 287.371094 C 567.296875 287.480469 566.179688 287.5625 565.0625 287.617188 C 563.941406 287.671875 562.820312 287.699219 561.699219 287.699219 C 560.578125 287.699219 559.457031 287.671875 558.339844 287.617188 C 557.21875 287.5625 556.101562 287.480469 554.984375 287.371094 C 553.871094 287.261719 552.757812 287.125 551.648438 286.957031 C 550.539062 286.792969 549.4375 286.601562 548.335938 286.382812 C 547.238281 286.164062 546.144531 285.917969 545.054688 285.648438 C 543.96875 285.375 542.886719 285.074219 541.816406 284.75 C 540.742188 284.425781 539.679688 284.074219 538.621094 283.695312 C 537.566406 283.316406 536.523438 282.914062 535.484375 282.484375 C 534.449219 282.058594 533.425781 281.601562 532.414062 281.125 C 531.398438 280.644531 530.398438 280.140625 529.410156 279.613281 C 528.421875 279.082031 527.445312 278.53125 526.484375 277.953125 C 525.523438 277.378906 524.574219 276.777344 523.644531 276.15625 C 522.710938 275.53125 521.796875 274.886719 520.894531 274.21875 C 519.992188 273.550781 519.109375 272.863281 518.242188 272.152344 C 517.378906 271.441406 516.527344 270.707031 515.699219 269.957031 C 514.867188 269.203125 514.054688 268.429688 513.261719 267.636719 C 512.46875 266.84375 511.699219 266.03125 510.945312 265.203125 C 510.191406 264.371094 509.460938 263.523438 508.75 262.65625 C 508.039062 261.789062 507.347656 260.90625 506.679688 260.003906 C 506.011719 259.105469 505.367188 258.1875 504.746094 257.257812 C 504.121094 256.324219 503.523438 255.378906 502.945312 254.414062 C 502.367188 253.453125 501.816406 252.480469 501.289062 251.492188 C 500.757812 250.503906 500.257812 249.5 499.777344 248.488281 C 499.296875 247.472656 498.84375 246.449219 498.414062 245.414062 C 497.984375 244.378906 497.582031 243.332031 497.203125 242.277344 C 496.828125 241.222656 496.476562 240.15625 496.148438 239.085938 C 495.824219 238.011719 495.523438 236.929688 495.253906 235.84375 C 494.980469 234.757812 494.734375 233.664062 494.515625 232.5625 C 494.296875 231.464844 494.105469 230.359375 493.941406 229.25 C 493.777344 228.140625 493.640625 227.03125 493.53125 225.914062 C 493.417969 224.796875 493.335938 223.679688 493.28125 222.5625 C 493.226562 221.441406 493.199219 220.320312 493.199219 219.199219 C 493.199219 218.078125 493.226562 216.957031 493.28125 215.839844 C 493.335938 214.71875 493.417969 213.601562 493.53125 212.484375 C 493.640625 211.371094 493.777344 210.257812 493.941406 209.148438 C 494.105469 208.039062 494.296875 206.9375 494.515625 205.835938 C 494.734375 204.738281 494.980469 203.644531 495.253906 202.554688 C 495.523438 201.46875 495.824219 200.386719 496.148438 199.316406 C 496.476562 198.242188 496.828125 197.179688 497.203125 196.121094 C 497.582031 195.066406 497.984375 194.023438 498.414062 192.984375 C 498.84375 191.949219 499.296875 190.925781 499.777344 189.914062 C 500.257812 188.898438 500.757812 187.898438 501.289062 186.910156 C 501.816406 185.921875 502.367188 184.945312 502.945312 183.984375 C 503.523438 183.023438 504.121094 182.074219 504.746094 181.144531 C 505.367188 180.210938 506.011719 179.296875 506.679688 178.394531 C 507.347656 177.492188 508.039062 176.609375 508.75 175.742188 C 509.460938 174.878906 510.191406 174.027344 510.945312 173.199219 C 511.699219 172.367188 512.46875 171.554688 513.261719 170.761719 C 514.054688 169.96875 514.867188 169.199219 515.699219 168.445312 C 516.527344 167.691406 517.378906 166.960938 518.242188 166.25 C 519.109375 165.539062 519.992188 164.847656 520.894531 164.179688 C 521.796875 163.511719 522.710938 162.867188 523.644531 162.246094 C 524.574219 161.621094 525.523438 161.023438 526.484375 160.445312 C 527.445312 159.871094 528.421875 159.316406 529.410156 158.789062 C 530.398438 158.261719 531.398438 157.757812 532.414062 157.277344 C 533.425781 156.796875 534.449219 156.34375 535.484375 155.914062 C 536.523438 155.484375 537.566406 155.082031 538.621094 154.703125 C 539.679688 154.328125 540.742188 153.976562 541.816406 153.648438 C 542.886719 153.324219 543.96875 153.023438 545.054688 152.753906 C 546.144531 152.480469 547.238281 152.234375 548.335938 152.015625 C 549.4375 151.796875 550.539062 151.605469 551.648438 151.441406 C 552.757812 151.277344 553.871094 151.140625 554.984375 151.03125 C 556.101562 150.921875 557.21875 150.835938 558.339844 150.78125 C 559.457031 150.726562 560.578125 150.699219 561.699219 150.699219 C 562.820312 150.699219 563.941406 150.726562 565.0625 150.78125 C 566.179688 150.835938 567.296875 150.921875 568.414062 151.03125 C 569.53125 151.140625 570.640625 151.277344 571.75 151.441406 C 572.859375 151.605469 573.964844 151.796875 575.0625 152.015625 C 576.164062 152.234375 577.257812 152.480469 578.34375 152.753906 C 579.429688 153.023438 580.511719 153.324219 581.585938 153.648438 C 582.65625 153.976562 583.722656 154.328125 584.777344 154.703125 C 585.832031 155.082031 586.878906 155.484375 587.914062 155.914062 C 588.949219 156.34375 589.972656 156.796875 590.988281 157.277344 C 592 157.757812 593 158.261719 593.992188 158.789062 C 594.980469 159.316406 595.953125 159.871094 596.914062 160.445312 C 597.878906 161.023438 598.824219 161.621094 599.757812 162.246094 C 600.6875 162.867188 601.605469 163.511719 602.503906 164.179688 C 603.40625 164.847656 604.289062 165.539062 605.15625 166.25 C 606.023438 166.960938 606.871094 167.691406 607.703125 168.445312 C 608.53125 169.199219 609.34375 169.96875 610.136719 170.761719 C 610.929688 171.554688 611.703125 172.367188 612.453125 173.199219 C 613.207031 174.027344 613.941406 174.878906 614.652344 175.742188 C 615.363281 176.609375 616.050781 177.492188 616.71875 178.394531 C 617.386719 179.296875 618.03125 180.210938 618.65625 181.144531 C 619.277344 182.074219 619.878906 183.023438 620.453125 183.984375 C 621.03125 184.945312 621.582031 185.921875 622.113281 186.910156 C 622.640625 187.898438 623.144531 188.898438 623.625 189.914062 C 624.101562 190.925781 624.554688 191.949219 624.984375 192.984375 C 625.414062 194.023438 625.816406 195.066406 626.195312 196.121094 C 626.574219 197.179688 626.925781 198.242188 627.25 199.316406 C 627.574219 200.386719 627.875 201.46875 628.148438 202.554688 C 628.417969 203.644531 628.664062 204.738281 628.882812 205.835938 C 629.101562 206.9375 629.292969 208.039062 629.457031 209.148438 C 629.621094 210.257812 629.761719 211.371094 629.871094 212.484375 C 629.980469 213.601562 630.0625 214.71875 630.117188 215.839844 C 630.171875 216.957031 630.199219 218.078125 630.199219 219.199219 Z M 630.199219 219.199219 "/>
<path style=" stroke:none;fill-rule:nonzero;fill:rgb(100%,95.289612%,90.979004%);fill-opacity:1;" d="M 493.199219 369.898438 L 548 369.898438 C 563.136719 369.898438 575.398438 357.636719 575.398438 342.5 C 575.398438 327.363281 563.136719 315.101562 548 315.101562 L 493.199219 315.101562 C 478.0625 315.101562 465.800781 327.363281 465.800781 342.5 C 465.800781 357.636719 478.0625 369.898438 493.199219 369.898438 Z M 493.199219 369.898438 "/>
<path style=" stroke:none;fill-rule:nonzero;fill:rgb(96.078491%,26.669312%,24.708557%);fill-opacity:1;" d="M 753.5 404.398438 C 757.40625 407.011719 761.117188 409.875 764.691406 412.902344 C 765.472656 413.5625 766.1875 414.273438 766.941406 414.945312 C 769.609375 417.328125 772.171875 419.796875 774.625 422.398438 C 775.558594 423.382812 776.449219 424.386719 777.351562 425.398438 C 779.597656 427.945312 781.734375 430.589844 783.777344 433.316406 C 784.515625 434.316406 785.296875 435.277344 786.011719 436.304688 C 788.613281 440.015625 791.050781 443.824219 793.242188 447.824219 C 793.257812 447.867188 793.285156 447.894531 793.3125 447.933594 C 795.519531 451.976562 797.449219 456.195312 799.203125 460.496094 C 799.695312 461.703125 800.09375 462.964844 800.558594 464.183594 C 801.722656 467.320312 802.765625 470.484375 803.667969 473.730469 C 804.09375 475.253906 804.492188 476.789062 804.847656 478.335938 C 805.613281 481.554688 806.21875 484.816406 806.722656 488.132812 C 806.945312 489.582031 807.21875 491.007812 807.382812 492.472656 C 807.945312 497.199219 808.300781 502.007812 808.300781 506.898438 L 808.300781 41.101562 L 753.5 41.101562 Z M 753.5 404.398438 "/>
<path style=" stroke:none;fill-rule:nonzero;fill:rgb(96.078491%,26.669312%,24.708557%);fill-opacity:1;" d="M 764.691406 412.890625 C 761.117188 409.863281 757.40625 407 753.5 404.382812 C 757.40625 407 761.117188 409.863281 764.691406 412.890625 Z M 764.691406 412.890625 "/>
<path style=" stroke:none;fill-rule:nonzero;fill:rgb(96.078491%,26.669312%,24.708557%);fill-opacity:1;" d="M 766.941406 414.945312 C 769.609375 417.316406 772.171875 419.796875 774.625 422.398438 C 772.171875 419.796875 769.609375 417.316406 766.941406 414.945312 Z M 766.941406 414.945312 "/>
<path style=" stroke:none;fill-rule:nonzero;fill:rgb(96.078491%,26.669312%,24.708557%);fill-opacity:1;" d="M 808.300781 506.898438 C 808.300781 502.007812 807.945312 497.199219 807.382812 492.460938 C 807.945312 497.199219 808.300781 502.007812 808.300781 506.898438 Z M 808.300781 506.898438 "/>
<path style=" stroke:none;fill-rule:nonzero;fill:rgb(96.078491%,26.669312%,24.708557%);fill-opacity:1;" d="M 804.832031 478.335938 C 805.601562 481.554688 806.203125 484.816406 806.710938 488.132812 C 806.21875 484.816406 805.601562 481.554688 804.832031 478.335938 Z M 804.832031 478.335938 "/>
<path style=" stroke:none;fill-rule:nonzero;fill:rgb(96.078491%,26.669312%,24.708557%);fill-opacity:1;" d="M 800.546875 464.183594 C 801.710938 467.308594 802.75 470.5 803.65625 473.730469 C 802.75 470.484375 801.695312 467.308594 800.546875 464.183594 Z M 800.546875 464.183594 "/>
<path style=" stroke:none;fill-rule:nonzero;fill:rgb(96.078491%,26.669312%,24.708557%);fill-opacity:1;" d="M 777.351562 425.386719 C 779.597656 427.933594 781.734375 430.578125 783.777344 433.304688 C 781.734375 430.578125 779.597656 427.945312 777.351562 425.386719 Z M 777.351562 425.386719 "/>
<path style=" stroke:none;fill-rule:nonzero;fill:rgb(96.078491%,26.669312%,24.708557%);fill-opacity:1;" d="M 785.996094 436.304688 C 788.597656 440.015625 791.039062 443.824219 793.230469 447.824219 C 791.039062 443.824219 788.597656 440.003906 785.996094 436.304688 Z M 785.996094 436.304688 "/>
<path style=" stroke:none;fill-rule:nonzero;fill:rgb(96.078491%,26.669312%,24.708557%);fill-opacity:1;" d="M 793.296875 447.921875 C 795.503906 451.964844 797.4375 456.183594 799.1875 460.484375 C 797.4375 456.183594 795.503906 451.976562 793.296875 447.921875 Z M 793.296875 447.921875 "/>
<path style=" stroke:none;fill-rule:nonzero;fill:rgb(0%,0%,0%);fill-opacity:1;" d="M 493.199219 753.5 C 493.199219 715.730469 462.472656 685 424.699219 685 C 386.929688 685 356.199219 715.730469 356.199219 753.5 C 356.199219 791.269531 386.929688 822 424.699219 822 C 462.472656 822 493.199219 791.269531 493.199219 753.5 Z M 383.601562 753.5 C 383.601562 730.839844 402.039062 712.398438 424.699219 712.398438 C 447.359375 712.398438 465.800781 730.839844 465.800781 753.5 C 465.800781 776.160156 447.359375 794.601562 424.699219 794.601562 C 402.039062 794.601562 383.601562 776.160156 383.601562 753.5 Z M 383.601562 753.5 "/>
<path style=" stroke:none;fill-rule:nonzero;fill:rgb(0%,0%,0%);fill-opacity:1;" d="M 767.199219 753.5 C 767.199219 715.730469 736.472656 685 698.699219 685 C 660.929688 685 630.199219 715.730469 630.199219 753.5 C 630.199219 791.269531 660.929688 822 698.699219 822 C 736.472656 822 767.199219 791.269531 767.199219 753.5 Z M 657.601562 753.5 C 657.601562 730.839844 676.039062 712.398438 698.699219 712.398438 C 721.359375 712.398438 739.800781 730.839844 739.800781 753.5 C 739.800781 776.160156 721.359375 794.601562 698.699219 794.601562 C 676.039062 794.601562 657.601562 776.160156 657.601562 753.5 Z M 657.601562 753.5 "/>
<path style=" stroke:none;fill-rule:nonzero;fill:rgb(0%,0%,0%);fill-opacity:1;" d="M 808.300781 27.398438 L 641.050781 27.398438 C 514.351562 27.398438 405.109375 103.296875 356.199219 211.980469 L 356.199219 13.699219 C 356.199219 6.136719 350.074219 0 342.5 0 L 287.699219 0 C 280.125 0 274 6.136719 274 13.699219 L 274 27.398438 L 68.5 27.398438 C 60.925781 27.398438 54.800781 33.539062 54.800781 41.101562 L 54.800781 411 L 13.699219 411 C 6.125 411 0 417.136719 0 424.699219 L 0 479.5 C 0 487.0625 6.125 493.199219 13.699219 493.199219 L 274 493.199219 L 274 698.699219 C 274 706.261719 280.125 712.398438 287.699219 712.398438 L 342.5 712.398438 C 350.074219 712.398438 356.199219 706.261719 356.199219 698.699219 L 356.199219 686.835938 C 374.269531 668.191406 398.957031 657.601562 424.699219 657.601562 C 458.730469 657.601562 490.527344 675.984375 507.667969 705.5625 C 510.105469 709.796875 514.625 712.398438 519.519531 712.398438 L 603.882812 712.398438 C 608.757812 712.398438 613.292969 709.796875 615.734375 705.5625 C 632.871094 675.984375 664.667969 657.601562 698.699219 657.601562 C 732.730469 657.601562 764.527344 675.984375 781.667969 705.5625 C 784.105469 709.796875 788.625 712.398438 793.519531 712.398438 L 808.300781 712.398438 C 815.875 712.398438 822 706.261719 822 698.699219 L 822 41.101562 C 822 33.539062 815.875 27.398438 808.300781 27.398438 Z M 641.050781 54.800781 L 739.800781 54.800781 L 739.800781 381.421875 C 723.003906 374.050781 704.480469 369.898438 685 369.898438 C 670.683594 369.898438 656.886719 372.132812 643.898438 376.214844 L 643.898438 349.351562 C 643.898438 322.828125 630.089844 299.507812 609.320312 286.082031 C 630.214844 271.164062 643.898438 246.777344 643.898438 219.199219 C 643.898438 173.867188 607.035156 137 561.699219 137 C 516.367188 137 479.5 173.867188 479.5 219.199219 C 479.5 249.886719 496.417969 276.644531 521.394531 290.769531 C 517.460938 293.933594 513.820312 297.453125 510.558594 301.398438 L 493.199219 301.398438 C 476.871094 301.398438 462.855469 311.042969 456.238281 324.867188 L 387.941406 302.097656 L 379.269531 328.085938 L 407.136719 337.375 L 356.199219 481.707031 L 356.199219 339.652344 C 356.199219 182.578125 483.980469 54.800781 641.050781 54.800781 Z M 361.871094 548 L 433.152344 346.0625 L 453.59375 352.871094 C 458.222656 370.503906 474.144531 383.601562 493.199219 383.601562 L 493.199219 452.101562 C 447.867188 452.101562 411 488.964844 411 534.300781 L 411 548 Z M 506.898438 219.199219 C 506.898438 188.976562 531.476562 164.398438 561.699219 164.398438 C 591.921875 164.398438 616.5 188.976562 616.5 219.199219 C 616.5 249.421875 591.921875 274 561.699219 274 C 531.476562 274 506.898438 249.421875 506.898438 219.199219 Z M 548 328.800781 C 555.5625 328.800781 561.699219 334.953125 561.699219 342.5 C 561.699219 350.046875 555.5625 356.199219 548 356.199219 L 493.199219 356.199219 C 485.636719 356.199219 479.5 350.046875 479.5 342.5 C 479.5 334.953125 485.636719 328.800781 493.199219 328.800781 Z M 438.398438 534.300781 C 438.398438 504.078125 462.976562 479.5 493.199219 479.5 L 550.765625 479.5 C 548.957031 488.363281 548 497.515625 548 506.898438 L 548 548 L 438.398438 548 Z M 559.523438 452.101562 L 520.601562 452.101562 L 520.601562 383.601562 L 548 383.601562 C 570.660156 383.601562 589.101562 365.160156 589.101562 342.5 C 589.101562 323.25 575.742188 307.167969 557.851562 302.730469 C 561.328125 301.933594 564.890625 301.398438 568.550781 301.398438 C 594.992188 301.398438 616.5 322.910156 616.5 349.351562 L 616.5 388.4375 C 591.375 403.027344 571.277344 425.304688 559.523438 452.101562 Z M 191.800781 54.800781 L 191.800781 114.832031 L 184.222656 111.050781 C 182.304688 110.078125 180.195312 109.601562 178.101562 109.601562 C 176.003906 109.601562 173.894531 110.078125 171.976562 111.039062 L 164.398438 114.832031 L 164.398438 54.800781 Z M 82.199219 54.800781 L 137 54.800781 L 137 137 C 137 141.753906 139.464844 146.152344 143.507812 148.660156 C 147.535156 151.152344 152.578125 151.359375 156.835938 149.261719 L 178.101562 138.617188 L 199.375 149.246094 C 201.308594 150.21875 203.402344 150.699219 205.5 150.699219 C 208.007812 150.699219 210.5 150.015625 212.691406 148.660156 C 216.734375 146.152344 219.199219 141.753906 219.199219 137 L 219.199219 54.800781 L 274 54.800781 L 274 219.199219 L 82.199219 219.199219 Z M 164.398438 246.601562 L 191.800781 246.601562 L 191.800781 306.632812 L 184.222656 302.851562 C 182.304688 301.878906 180.195312 301.398438 178.101562 301.398438 C 176.003906 301.398438 173.894531 301.878906 171.976562 302.839844 L 164.398438 306.632812 Z M 82.199219 246.601562 L 137 246.601562 L 137 328.800781 C 137 333.554688 139.464844 337.953125 143.507812 340.457031 C 147.535156 342.953125 152.578125 343.171875 156.835938 341.0625 L 178.101562 330.417969 L 199.375 341.046875 C 201.308594 342.019531 203.402344 342.5 205.5 342.5 C 208.007812 342.5 210.5 341.816406 212.691406 340.457031 C 216.734375 337.953125 219.199219 333.554688 219.199219 328.800781 L 219.199219 246.601562 L 274 246.601562 L 274 411 L 82.199219 411 Z M 27.398438 465.800781 L 27.398438 438.398438 L 274 438.398438 L 274 465.800781 Z M 698.699219 630.199219 C 657.613281 630.199219 619.074219 651.011719 596.292969 685 L 527.09375 685 C 504.3125 651.011719 465.773438 630.199219 424.6875 630.199219 C 389.410156 630.199219 355.679688 645.613281 332.171875 672.464844 C 330.003906 674.972656 328.800781 678.164062 328.800781 681.492188 L 328.800781 685 L 301.398438 685 L 301.398438 27.398438 L 328.800781 27.398438 L 328.800781 561.699219 C 328.800781 569.261719 334.925781 575.398438 342.5 575.398438 L 794.601562 575.398438 L 794.601562 676.164062 C 771.390625 647.433594 736.085938 630.199219 698.699219 630.199219 Z M 794.601562 548 L 575.398438 548 L 575.398438 506.898438 C 575.398438 446.46875 624.570312 397.300781 685 397.300781 C 745.429688 397.300781 794.601562 446.46875 794.601562 506.898438 Z M 767.199219 397.558594 L 767.199219 54.800781 L 794.601562 54.800781 L 794.601562 425.054688 C 786.804688 414.644531 777.585938 405.398438 767.199219 397.558594 Z M 767.199219 397.558594 "/>
</g>
</svg>
